<?xml version="1.0"?><svg width="342.45248" height="349.4668" xmlns="http://www.w3.org/2000/svg">
 <title>Cycle</title>

 <metadata id="metadata4575">image/svg+xmlCycle2011-02-14lmproulx</metadata>
 <g>
  <title>Layer 1</title>
  <path fill="#f79e50" stroke="#ffffff" stroke-width="2" stroke-linecap="round" stroke-linejoin="round" stroke-miterlimit="4" stroke-dashoffset="3.003" id="path4526" d="m79.692627,75.52153c-4.350891,-4.170227 -10.09906,-5.253815 -16.196045,0.056488c-16.968201,15.5961 -27.706482,37.245789 -35.388733,61.121155c-20.491089,55.143463 -3.525635,119.607132 36.499969,161.562515c39.989716,43.43988 106.12973,61.968628 162.3125,42.46875c20.701996,-6.819092 35.793396,-13.731079 52.208008,-26.016113l10.749329,9.750427c6.300568,4.485474 11.512695,-0.214905 12.133514,-10.568176c3.077118,-23.89679 7.815491,-45.15863 8.274933,-68.78923c3.078949,-27.631165 -5.893677,-24.14801 -25.929077,-22.963501c-21.056915,0.675964 -37.064453,3.162109 -58.121368,7.840881c-11.210236,2.085266 -15.241333,6.180725 -9.481506,13.920471l8.343933,10.096741c-8.957214,6.069138 -13.773438,10.586044 -26.396515,12.166c-35.93866,5.630188 -74.142944,-14.658859 -88.781219,-48.124985c-16.832855,-24.899658 -15.750854,-56.690338 4.241699,-79.955444c5.927856,-4.861237 6.184814,-10.309235 2.359192,-14.537415l-36.828613,-48.028564z"/>
  <path fill="#f79e50" stroke="#ffffff" stroke-width="2" stroke-linecap="round" stroke-linejoin="round" stroke-miterlimit="4" stroke-dashoffset="3.003" id="path4528" d="m288.634186,113.582657c5.586945,0.659241 44.448547,36.093323 42.784729,30.212128c-3.750153,-22.739716 -9.36853,-40.511414 -25.132416,-60.019104c-34.903351,-47.354401 -98.12558,-68.48108 -155.153076,-57.98465c-58.249664,9.653046 -109.987366,54.830688 -124.456848,112.51416c-5.637939,21.054352 -9.317688,36.684387 -6.449646,57.331818l-14.437073,4.246948c-7.204346,2.813171 -6.12793,9.748657 2.192932,15.940491c18.304932,15.666992 33.495361,31.28009 53.01181,44.611374c21.427948,17.7146 22.485474,7.681458 32.471802,-9.728134c10.971436,-17.985474 18.60672,-32.120056 26.229584,-52.298645c4.397522,-10.520386 3.180115,-16.136475 -6.450287,-15.558655l-14.005615,1.654114c-0.169647,-10.818359 -0.321808,-17.528046 5.272552,-28.953552c14.98053,-33.149231 54.398438,-56.514923 90.414703,-50.424805c31.769989,4.303711 54.957184,3.34079 63.46582,32.812256c-0.124146,6.197937 12.203156,-20.114655 21.420746,-23.408051c2.93512,-0.923737 4.196991,-2.193268 8.820282,-0.947693z"/>
  <path fill="#f79e50" stroke="#ffffff" stroke-width="2" stroke-linecap="round" stroke-linejoin="round" stroke-miterlimit="4" stroke-dashoffset="3.003" d="m307.085785,279.528961c29.118225,-37.725815 37.028534,-62.830124 33.632111,-114.770706c-5.318481,-58.804077 -44.823608,-115.96814 -101.278931,-134.664215c-20.579712,-7.179718 -36.399231,-9.483215 -57.706635,-9.158997l-3.167572,-14.71164c-2.272614,-7.392639 -9.268768,-6.832123 -16.059021,1.007996c-16.977905,17.09604 -33.671722,31.09015 -48.409973,49.56717c-19.250916,20.059082 -9.323425,21.855774 7.299866,33.102356c17.124817,12.271576 30.655914,25.924988 50.215485,35.019379c10.166351,5.163574 15.857056,4.364868 15.993103,-5.281891l-0.613708,-11.949493c18.367767,-2.39563 25.941986,-1.755676 37.931274,4.164001c26.906158,13.860138 45.026398,51.826538 36.289185,87.293732c-4.119415,15.446533 -8.998901,20.152954 -14.555206,26.580933c82.602753,-6.502258 63.506348,-10.323303 60.430023,53.801376z" id="path4530"/>
 </g>
</svg>